<?xml version="1.0" encoding="UTF-8" standalone="no"?>
<svg
   xmlns:dc="http://purl.org/dc/elements/1.1/"
   xmlns:cc="http://creativecommons.org/ns#"
   xmlns:rdf="http://www.w3.org/1999/02/22-rdf-syntax-ns#"
   xmlns:svg="http://www.w3.org/2000/svg"
   xmlns="http://www.w3.org/2000/svg"
   xmlns:sodipodi="http://sodipodi.sourceforge.net/DTD/sodipodi-0.dtd"
   xmlns:inkscape="http://www.inkscape.org/namespaces/inkscape"
   version="1.1"
   x="0px"
   y="0px"
   viewBox="0 0 100 100"
   enable-background="new 0 0 100 100"
   xml:space="preserve"
   id="svg3853"
   sodipodi:docname="logo.svg"
   inkscape:version="0.92.3 (2405546, 2018-03-11)"
   width="100"
   height="100"
   inkscape:export-filename="/home/andrei/Dev/dark_scroll/images/icon-128.png"
   inkscape:export-xdpi="122.88"
   inkscape:export-ydpi="122.88"><metadata
     id="metadata3859"><rdf:RDF><cc:Work
         rdf:about=""><dc:format>image/svg+xml</dc:format><dc:type
           rdf:resource="http://purl.org/dc/dcmitype/StillImage" /><dc:title /></cc:Work></rdf:RDF></metadata><defs
     id="defs3857"><linearGradient
       id="linearGradient865"><stop
         style="stop-color:#003eaa;stop-opacity:1"
         offset="0"
         id="stop863" /><stop
         style="stop-color:#000f40;stop-opacity:1"
         offset="1"
         id="stop861" /></linearGradient><linearGradient
       id="linearGradient991"><stop
         style="stop-color:#00feff;stop-opacity:1"
         offset="0"
         id="stop987" /><stop
         style="stop-color:#00c8d7;stop-opacity:0.99481863"
         offset="1"
         id="stop989" /></linearGradient></defs><sodipodi:namedview
     pagecolor="#ffffff"
     bordercolor="#666666"
     borderopacity="1"
     objecttolerance="10"
     gridtolerance="10"
     guidetolerance="10"
     inkscape:pageopacity="0"
     inkscape:pageshadow="2"
     inkscape:window-width="1920"
     inkscape:window-height="1080"
     id="namedview3855"
     showgrid="false"
     inkscape:zoom="6.808"
     inkscape:cx="69.548269"
     inkscape:cy="57.579318"
     inkscape:window-x="0"
     inkscape:window-y="0"
     inkscape:window-maximized="1"
     inkscape:current-layer="layer1" /><rect
     style="fill:#000000;fill-opacity:0"
     id="rect4666"
     width="90.04113"
     height="71.386604"
     x="0.29377204"
     y="-24.412457" /><g
     inkscape:groupmode="layer"
     id="layer1"
     inkscape:label="bg"
     transform="translate(0,-25)"><ellipse
       style="opacity:0.93699999;fill:#1da1f2;fill-opacity:1;stroke:#222222;stroke-width:1.13385827;stroke-miterlimit:4;stroke-dasharray:none;stroke-opacity:1"
       id="path864"
       cx="50.088135"
       cy="75.132195"
       rx="48.08556"
       ry="48.012123"
       inkscape:export-xdpi="123.6188"
       inkscape:export-ydpi="123.6188" /><g
       id="g927"
       transform="matrix(0.73317912,0,0,0.73317912,12.884185,39.139428)"
       style="fill:#222222;fill-opacity:1"><g
         id="g925"
         style="fill:#222222;fill-opacity:1"><path
           inkscape:connector-curvature="0"
           d="m 16.523,16.74 c 0.876,-0.107 1.72,0.171 2.452,0.787 1.064,0.896 1.758,2.451 1.854,4.16 0.169,3.064 -1.244,5.802 -3.284,6.724 l 8.272,-1.829 C 24.751,19.266 22.771,15.713 21.112,14 c -1.775,-1.833 -3.468,-1.939 -4.303,-1.844 -3.157,0.361 -5.51,4.457 -5.245,9.132 0.123,2.188 0.969,4.144 2.262,5.234 0.76,0.639 1.623,0.923 2.476,0.826 1.857,-0.213 3.294,-2.771 3.14,-5.584 -0.076,-1.332 -0.584,-2.519 -1.36,-3.171 -0.303,-0.254 -0.796,-0.542 -1.396,-0.471 -1.062,0.124 -1.881,1.639 -2.414,3.342 l -0.14,0.007 c -0.763,-2.425 0.563,-4.518 2.391,-4.731 z"
           id="path919"
           style="fill:#222222;fill-opacity:1" /><path
           inkscape:connector-curvature="0"
           d="M 86.593,74.958 C 85.901,74.264 85.085,73.895 84.24,73.895 L 37.229,84.266 c 0,0 3.029,1.865 3.114,7.07 0,5.121 -3.419,8.523 -3.419,8.523 l 44.945,-9.937 c 4.008,-1.078 6.582,-5.024 6.586,-9.7 0.006,-2.122 -0.691,-4.091 -1.862,-5.264 z"
           id="path921"
           style="fill:#222222;fill-opacity:1" /><path
           inkscape:connector-curvature="0"
           d="m 38.628,88.979 c -1.183,-4.346 -4.104,-4.127 -4.104,-4.127 -1.864,0.104 -3.446,2.576 -3.452,5.396 -0.002,1.334 0.436,2.548 1.176,3.245 0.281,0.268 0.768,0.573 1.362,0.547 1.071,-0.063 1.979,-1.528 2.606,-3.197 h 0.141 c 0.619,2.464 -0.824,4.478 -2.664,4.584 -0.867,0.063 -1.705,-0.266 -2.402,-0.923 -1.011,-0.956 -1.613,-2.548 -1.611,-4.259 0.01,-3.429 1.961,-6.341 4.409,-6.729 0.058,-0.009 24.267,-5.326 39.024,-8.567 -0.229,-3.867 -0.01,-8.726 0.902,-14.873 0.254,-1.706 0.488,-3.362 0.705,-4.974 C 79.289,21.018 75.673,7.807 71.564,3.006 69.547,0.553 67.368,0.001 65.846,0 l -48.61,10.745 c 1.185,-0.006 3.023,0.375 4.876,2.288 4.617,4.769 8.89,18.72 3.039,58.099 -2.474,16.653 0.182,23.628 2.844,26.546 2.012,2.203 4.212,2.361 5.1,2.316 5.711,-0.808 6.185,-8.621 5.533,-11.015 z m 28.416,-42.091 -29.25,6.465 c 0.047,-0.53 0.094,-1.065 0.136,-1.584 l 29.276,-6.472 c -0.054,0.525 -0.106,1.055 -0.162,1.591 z m 0.827,-9.694 -29.466,6.513 c 0.02,-0.533 0.032,-1.046 0.047,-1.563 l 29.504,-6.522 c -0.026,0.524 -0.052,1.033 -0.085,1.572 z m 0.311,-9.622 -29.77,6.58 c -0.021,-0.521 -0.044,-1.039 -0.071,-1.537 l 29.828,-6.593 c 0.009,0.504 0.013,1.024 0.013,1.55 z M 67.563,16.628 c 0.063,0.501 0.133,0.979 0.188,1.511 L 37.481,24.83 C 37.389,24.316 37.297,23.819 37.196,23.341 Z M 36.948,61.516 66.07,55.078 c 0,0.01 0,0.018 -0.002,0.024 -0.067,0.513 -0.149,1.06 -0.225,1.578 l -29.092,6.43 c 0.07,-0.536 0.136,-1.069 0.197,-1.594 z m -1.318,9.841 29.138,-6.44 c -0.056,0.55 -0.086,1.056 -0.129,1.581 l -29.225,6.461 c 0.067,-0.527 0.136,-1.051 0.216,-1.602 z"
           id="path923"
           style="fill:#222222;fill-opacity:1" /></g></g><text
       style="font-weight:bold;font-size:5px;font-family:'Helvetica Neue', Helvetica, Arial-Unicode, Arial, Sans-serif;fill:#000000"
       x="-1.6655742"
       y="118.79108"
       font-size="5px"
       font-weight="bold"
       id="text929" />
<text
       style="font-weight:bold;font-size:5px;font-family:'Helvetica Neue', Helvetica, Arial-Unicode, Arial, Sans-serif;fill:#000000"
       x="-1.6655742"
       y="123.79108"
       font-size="5px"
       font-weight="bold"
       id="text931" />
</g><g
     inkscape:groupmode="layer"
     id="layer2"
     inkscape:label="fg"
     transform="translate(0,-25)" /></svg>