<svg xmlns="http://www.w3.org/2000/svg" xmlns:xlink="http://www.w3.org/1999/xlink" version="1.1" x="0px" y="0px" viewBox="0 0 100 125" enable-background="new 0 0 100 100" xml:space="preserve"><g><g><path d="M16.523,16.74c0.876-0.107,1.72,0.171,2.452,0.787c1.064,0.896,1.758,2.451,1.854,4.16    c0.169,3.064-1.244,5.802-3.284,6.724l8.272-1.829C24.751,19.266,22.771,15.713,21.112,14c-1.775-1.833-3.468-1.939-4.303-1.844    c-3.157,0.361-5.51,4.457-5.245,9.132c0.123,2.188,0.969,4.144,2.262,5.234c0.76,0.639,1.623,0.923,2.476,0.826    c1.857-0.213,3.294-2.771,3.14-5.584c-0.076-1.332-0.584-2.519-1.36-3.171c-0.303-0.254-0.796-0.542-1.396-0.471    c-1.062,0.124-1.881,1.639-2.414,3.342l-0.14,0.007C13.369,19.046,14.695,16.953,16.523,16.74z"/><path d="M86.593,74.958c-0.692-0.694-1.508-1.063-2.353-1.063L37.229,84.266c0,0,3.029,1.865,3.114,7.07    c0,5.121-3.419,8.523-3.419,8.523l44.945-9.937c4.008-1.078,6.582-5.024,6.586-9.7C88.461,78.1,87.764,76.131,86.593,74.958z"/><path d="M38.628,88.979c-1.183-4.346-4.104-4.127-4.104-4.127c-1.864,0.104-3.446,2.576-3.452,5.396    c-0.002,1.334,0.436,2.548,1.176,3.245c0.281,0.268,0.768,0.573,1.362,0.547c1.071-0.063,1.979-1.528,2.606-3.197h0.141    c0.619,2.464-0.824,4.478-2.664,4.584c-0.867,0.063-1.705-0.266-2.402-0.923c-1.011-0.956-1.613-2.548-1.611-4.259    c0.01-3.429,1.961-6.341,4.409-6.729c0.058-0.009,24.267-5.326,39.024-8.567c-0.229-3.867-0.01-8.726,0.902-14.873    c0.254-1.706,0.488-3.362,0.705-4.974c4.569-34.084,0.953-47.295-3.156-52.096C69.547,0.553,67.368,0.001,65.846,0l-48.61,10.745    c1.185-0.006,3.023,0.375,4.876,2.288c4.617,4.769,8.89,18.72,3.039,58.099c-2.474,16.653,0.182,23.628,2.844,26.546    c2.012,2.203,4.212,2.361,5.1,2.316C38.806,99.186,39.28,91.373,38.628,88.979z M67.044,46.888l-29.25,6.465    c0.047-0.53,0.094-1.065,0.136-1.584l29.276-6.472C67.152,45.822,67.1,46.352,67.044,46.888z M67.871,37.194l-29.466,6.513    c0.02-0.533,0.032-1.046,0.047-1.563l29.504-6.522C67.93,36.146,67.904,36.655,67.871,37.194z M68.182,27.572l-29.77,6.58    c-0.021-0.521-0.044-1.039-0.071-1.537l29.828-6.593C68.178,26.526,68.182,27.046,68.182,27.572z M67.563,16.628    c0.063,0.501,0.133,0.979,0.188,1.511l-30.27,6.691c-0.092-0.514-0.184-1.011-0.285-1.489L67.563,16.628z M36.948,61.516    l29.122-6.438c0,0.01,0,0.018-0.002,0.024c-0.067,0.513-0.149,1.06-0.225,1.578l-29.092,6.43    C36.821,62.574,36.887,62.041,36.948,61.516z M35.63,71.357l29.138-6.44c-0.056,0.55-0.086,1.056-0.129,1.581l-29.225,6.461    C35.481,72.432,35.55,71.908,35.63,71.357z"/></g></g><text x="0" y="115" fill="#000000" font-size="5px" font-weight="bold" font-family="'Helvetica Neue', Helvetica, Arial-Unicode, Arial, Sans-serif">Created by Juan Pablo Bravo</text><text x="0" y="120" fill="#000000" font-size="5px" font-weight="bold" font-family="'Helvetica Neue', Helvetica, Arial-Unicode, Arial, Sans-serif">from the Noun Project</text></svg>